PathFileType	4	(X/Y/Z)	C:\Users\Basilio\Documents\Thesis Gigler\squatting_fais\c3dfiles\039\SLS_pre_back1\markers_experimental.trc
DataRate	CameraRate	NumFrames	NumMarkers	Units	OrigDataRate	OrigDataStartFrame	OrigNumFrames
200.000000	200.000000	4	63	mm	200.000000	1331	1775
Frame#	Time	FHD			LBHD			RBHD			C7			T10			CLAV			LSHO			LUUPA			LMUPA			LDUPA			LLEP			LMEP			LRAD			LUL			LRFIN			RSHO			RUPA1			RMUPA			RDUPA			RLEP			RMEP			RRAD			RUL			RUFIN			LASI			RASI			USACR			LSACR			RSACR			LTHI1			LTHI2			LTHI3			LTHI4			LLFC			LMFC			LTIB1			LTIB2			LTIB3			LTIB4			LLMAL			LMMAL			LHEE			LMT1			LMT2			LMT5			RTHI			RTHI2			RTHI3			RTHI4			RLFC			RMFC			RTIB1			RTIB2			RTIB3			RTIB4			RLMAL			RMMAL			RHEE			RMT1			RMT2			RMT5			*61			*62			
		X1	Y1	Z1	X2	Y2	Z2	X3	Y3	Z3	X4	Y4	Z4	X5	Y5	Z5	X6	Y6	Z6	X7	Y7	Z7	X8	Y8	Z8	X9	Y9	Z9	X10	Y10	Z10	X11	Y11	Z11	X12	Y12	Z12	X13	Y13	Z13	X14	Y14	Z14	X15	Y15	Z15	X16	Y16	Z16	X17	Y17	Z17	X18	Y18	Z18	X19	Y19	Z19	X20	Y20	Z20	X21	Y21	Z21	X22	Y22	Z22	X23	Y23	Z23	X24	Y24	Z24	X25	Y25	Z25	X26	Y26	Z26	X27	Y27	Z27	X28	Y28	Z28	X29	Y29	Z29	X30	Y30	Z30	X31	Y31	Z31	X32	Y32	Z32	X33	Y33	Z33	X34	Y34	Z34	X35	Y35	Z35	X36	Y36	Z36	X37	Y37	Z37	X38	Y38	Z38	X39	Y39	Z39	X40	Y40	Z40	X41	Y41	Z41	X42	Y42	Z42	X43	Y43	Z43	X44	Y44	Z44	X45	Y45	Z45	X46	Y46	Z46	X47	Y47	Z47	X48	Y48	Z48	X49	Y49	Z49	X50	Y50	Z50	X51	Y51	Z51	X52	Y52	Z52	X53	Y53	Z53	X54	Y54	Z54	X55	Y55	Z55	X56	Y56	Z56	X57	Y57	Z57	X58	Y58	Z58	X59	Y59	Z59	X60	Y60	Z60	X61	Y61	Z61	X62	Y62	Z62	X63	Y63	Z63	

1332	6.655	-132.2080993652344	1686.5029296875	-682.8638305664064	-294.9750061035157	1678.301879882813	-800.9329223632815	-264.6301574707032	1678.894775390625	-662.3631591796876	-353.9862976074219	1520.323608398438	-737.3074340820314	-429.306854248047	1225.1943359375	-762.0178222656251	nan	nan	nan	-286.1685791015626	1528.978759765625	-889.4141235351565	-121.1491851806641	1484.3740234375	-994.6851806640627	-97.78153991699222	1515.303466796875	-963.2550048828127	-51.93684005737306	1491.256469726563	-992.4796142578127	15.15588665008545	1496.931518554688	-985.3621215820315	15.63251876831055	1426.935546875	-951.012145996094	291.2329711914063	1518.936645507813	-886.539978027344	293.8044433593751	1524.965087890625	-962.7070312500002	368.1119995117188	1562.663940429688	-879.4051513671877	-235.3900909423829	1512.238891601563	-584.5924072265626	-76.28065490722658	1434.826416015625	-496.9788208007814	-49.1539878845215	1467.89501953125	-523.2349853515626	-7.005905151367189	1428.890625	-502.5427551269532	55.73221588134767	1441.404174804688	-517.8674316406251	54.77297210693361	1375.109375	-559.7082519531251	333.3983154296876	1481.407592773438	-633.0473632812501	343.2811584472657	1469.5908203125	-558.2636718750001	415.7376708984376	1522.662963867188	-635.6857299804689	-314.7935791015626	1017.429931640625	-896.463317871094	-296.3149108886719	1004.109191894531	-677.3840942382814	-475.6802062988282	1098.619018554688	-767.8583374023439	-487.5599975585939	1069.170166015625	-795.8276977539065	-481.8797607421876	1066.69287109375	-736.4541625976564	-356.5690917968751	758.1933593750001	-1002.6044921875	-311.3852844238282	688.1002197265626	-1020.652770996094	-263.2488098144532	694.8198242187501	-1015.923461914063	-328.5502624511719	628.9833984375001	-1012.215454101563	-312.1175537109376	543.6525268554689	-1011.509887695313	-279.5147094726563	493.3559875488282	-909.6286621093752	-399.2119140625001	436.7816162109376	-980.1323242187502	-460.5147705078126	501.2143859863282	-998.0854492187502	-454.2293090820314	458.4168090820314	-990.9363403320315	-518.8721313476564	436.7926635742189	-936.2604980468752	-706.7274780273439	463.4222106933595	-915.9492797851565	-666.4909667968751	442.6837768554689	-841.6367187500002	-723.8422241210939	531.6801147460939	-867.0433349609377	-734.8132934570314	302.9761352539063	-816.037536621094	-763.3558349609376	304.7840576171876	-848.118591308594	-812.6469726562502	349.3491210937501	-873.3237304687502	-277.9137573242188	750.0454711914064	-620.2990112304689	-221.7507934570313	713.3789672851564	-625.3552856445314	-193.0857391357422	727.2406616210939	-633.2944946289064	-221.1463623046876	628.9489135742189	-641.2926635742189	-215.216537475586	501.6519470214845	-677.7595214843751	-192.3030090332032	508.4864807128907	-792.2385864257815	-222.4317169189454	297.9447021484376	-727.3850097656251	-321.1995849609376	254.1825561523438	-718.2722778320314	-279.7829284667969	235.1274414062501	-724.5087280273439	-278.6791076660157	191.2480773925782	-766.4583740234376	-365.8952636718751	116.9874877929688	-746.1027832031251	-339.9393005371094	134.4470672607422	-832.7107543945315	-440.7446289062501	98.2858581542969	-796.853942871094	-215.7420196533204	50.70335769653322	-808.8608398437502	-219.1142730712891	55.21791839599611	-762.4262695312501	-274.2264099121094	38.50756072998048	-710.6002807617189	nan	nan	nan	nan	nan	nan	
1333	6.66	-132.6199035644532	1687.9423828125	-682.8126220703126	-295.6495361328126	1679.86962890625	-800.9597778320315	-265.0992126464844	1680.338012695313	-662.3269653320314	-354.4945068359376	1521.855834960938	-737.5539550781251	-430.3536987304689	1226.096801757813	-762.5834350585939	nan	nan	nan	-286.6065979003907	1530.294067382813	-889.429626464844	-121.4999160766602	1485.542602539063	-994.7762451171877	-98.04177856445315	1517.047973632813	-963.3796997070315	-52.2375946044922	1492.578491210938	-992.6748046875002	14.84347724914551	1498.372680664063	-985.4321289062502	15.30979824066162	1428.214721679688	-950.9661865234377	290.9330139160157	1520.190795898438	-886.5656738281252	293.0199279785157	1526.64208984375	-962.835144042969	367.5963745117188	1564.256591796875	-879.6578369140627	-235.6924591064454	1513.563354492188	-584.6489868164064	-76.67481994628908	1436.310546875	-497.2318115234376	-49.46446990966798	1469.550659179688	-523.2164306640626	-7.485603332519533	1430.513305664063	-502.657928466797	55.61317443847658	1442.733764648438	-517.9826660156251	54.60647201538087	1376.536254882813	-559.1670532226564	333.2072448730469	1482.919311523438	-633.1688232421876	343.2244567871094	1471.233276367188	-558.2265014648439	415.456756591797	1523.924072265625	-635.7847290039064	-314.4058837890626	1018.757690429688	-896.2783203125002	-295.8706970214844	1005.5361328125	-677.6267089843751	-475.1640930175782	1099.8994140625	-767.7285766601564	-486.6846923828126	1069.6337890625	-795.8083496093752	-481.2000732421876	1067.2880859375	-736.1684570312501	-356.2105712890626	759.2041015625001	-1002.658142089844	-310.0080261230469	689.5032958984376	-1020.740478515625	-263.4927368164063	696.7034301757814	-1016.119750976563	-328.0824279785157	630.2620239257814	-1012.126953125	-311.3611755371094	544.6903686523439	-1011.470886230469	-278.8331909179688	494.497283935547	-909.5106201171877	-398.7965698242189	438.2228393554689	-980.2085571289065	-459.9794006347657	502.0785522460939	-997.8963012695315	-453.4679565429689	459.2429809570314	-990.777038574219	-518.4703369140626	437.5920410156251	-936.4407348632815	-706.0774536132814	463.8788146972657	-915.6553955078127	-665.7313842773439	443.1176757812501	-841.092712402344	-723.5557250976564	532.1710205078126	-866.700134277344	-733.9019165039064	303.3511657714844	-815.8375244140627	-762.3920898437501	305.0223999023438	-847.7398071289065	-811.827575683594	349.5340576171876	-872.9957275390627	-278.0908508300782	750.9683837890626	-620.5999145507814	-222.1682434082032	714.1058349609376	-625.5828247070314	-193.3808593750001	727.7589111328126	-633.6630249023439	-221.6313476562501	629.3634033203126	-641.6558227539064	-216.0023040771485	502.0625915527345	-678.2070922851564	-193.0992431640626	508.8080444335939	-792.519470214844	-222.9295806884766	298.4394531250001	-727.8661499023439	-321.5097961425782	254.3774871826172	-718.5507202148439	-280.0444641113282	235.3012390136719	-724.8022460937501	-278.9319763183594	191.6260528564453	-766.6547241210939	-365.9035644531251	117.0105056762696	-746.1614990234376	-340.0133972167969	134.417709350586	-832.8225097656252	-440.7614746093751	98.311637878418	-796.8828735351565	-215.7563781738282	50.68600463867189	-808.882507324219	-219.073959350586	55.25988388061525	-762.5047607421876	-274.1508483886719	38.5503273010254	-710.6658935546876	nan	nan	nan	nan	nan	nan	
1334	6.665	-133.064926147461	1689.227661132813	-682.8956298828126	-296.1017761230469	1681.384643554688	-800.7952270507815	-265.3891296386719	1681.816162109375	-662.2411499023439	-354.6910095214844	1523.18701171875	-737.5491943359376	-429.1609497070314	1227.545532226563	-761.8746948242189	nan	nan	nan	-286.8945922851563	1531.771362304688	-889.7085571289065	-122.1963119506836	1487.19873046875	-994.870788574219	-98.41786193847659	1518.274291992188	-963.4112548828127	-52.55187988281251	1493.764038085938	-992.3968505859377	14.94101715087891	1499.41357421875	-985.4216308593752	15.03162288665772	1429.62255859375	-951.148864746094	290.4549865722657	1521.749755859375	-886.7319946289065	292.6573181152344	1527.88134765625	-962.9143066406252	367.3049011230469	1565.541015625	-879.684509277344	-236.0399627685547	1515.118774414063	-584.7028198242189	-77.01538085937501	1437.8486328125	-496.9006652832032	-49.84276580810548	1470.887939453125	-523.3548583984376	-7.59565591812134	1432.026611328125	-502.5156555175782	55.29402923583986	1444.359619140625	-518.0660400390626	54.04722213745119	1377.66796875	-559.6779174804689	332.9240417480469	1484.197387695313	-633.2158813476564	342.7638854980469	1472.487426757813	-558.4149169921876	415.0869140625001	1525.297119140625	-635.8786010742189	-313.9548645019532	1020.340637207031	-896.3051757812502	-295.1990966796876	1006.681823730469	-677.3413696289064	-474.6424560546876	1100.630126953125	-767.7430419921876	-486.1487121582032	1070.88427734375	-795.6609497070315	-480.7798156738282	1068.252197265625	-736.3205566406251	-355.6434020996094	760.4956054687501	-1002.596801757813	-309.6473999023438	690.9334106445314	-1020.67041015625	-262.5548095703126	697.5158691406251	-1015.943542480469	-327.6514892578126	631.3885498046876	-1012.068542480469	-310.9380798339844	545.8976440429689	-1011.271240234375	-278.3317260742188	495.8115539550782	-909.5064697265627	-397.9119262695314	438.6415100097657	-979.9954833984377	-459.5245361328126	503.0578002929689	-997.7257080078127	-453.1297607421876	460.2857666015626	-990.608581542969	-517.9461059570314	438.551971435547	-935.9333496093752	-705.4842529296876	464.3595581054689	-915.3626098632815	-665.2766113281251	443.973602294922	-840.5153808593752	-723.2138671875001	532.6417236328126	-866.411071777344	-732.9526367187501	303.6932678222657	-815.4733886718752	-761.2420043945314	306.1050720214844	-847.3254394531252	-811.0754394531252	350.1490173339844	-872.5681762695315	-278.2327880859376	751.7937622070314	-621.5208740234376	-222.3829345703126	714.8639526367189	-625.7421264648439	-193.7510986328126	727.7982788085939	-634.1562500000001	-222.3586120605469	630.1978759765626	-642.0027465820314	-216.9748229980469	502.6471252441407	-678.5625000000001	-194.0861816406251	509.6489562988282	-792.8190917968752	-223.4052429199219	298.6867675781251	-728.1710815429689	-321.7482604980469	254.3480224609376	-718.8580322265626	-280.4112854003907	235.5071105957032	-725.1047363281251	-279.0445251464844	191.8194427490235	-766.9581909179689	-365.8857116699219	117.0136108398438	-746.3054199218751	-340.0830993652344	134.4109039306641	-833.0005493164065	-440.7866210937501	98.26280212402347	-796.9975585937502	-215.8360443115235	50.74505996704103	-808.9500732421877	-219.0847473144532	55.28849029541017	-762.5234985351564	-274.2310485839844	38.70806503295899	-710.6564941406251	nan	nan	nan	nan	nan	nan	
1335	6.67	-133.2848815917969	1690.898803710938	-682.7929687500001	-296.4076538085938	1683.03857421875	-800.9214477539065	-265.8858947753907	1683.14208984375	-662.2050781250001	-355.0718078613282	1524.616333007813	-737.7747802734376	-429.388885498047	1228.554565429688	-761.9832763671876	nan	nan	nan	-286.9072570800782	1532.930053710938	-889.6848754882815	-122.4367904663086	1488.2548828125	-994.8994750976565	-98.82168579101565	1519.745727539063	-963.5608520507815	-52.9365921020508	1495.29443359375	-992.8151855468752	14.12719917297364	1501.047607421875	-985.571716308594	14.99734210968018	1430.380126953125	-951.132263183594	290.2120971679688	1522.86279296875	-886.7763671875002	292.3148803710938	1529.28662109375	-963.053649902344	366.8792114257813	1567.095458984375	-879.7766723632815	-236.3176727294922	1516.49560546875	-584.7248535156251	-77.36486816406251	1439.26318359375	-497.2777099609376	-50.07098388671876	1472.438720703125	-523.3826293945314	-8.071251869201662	1433.377319335938	-502.8159790039064	55.0516700744629	1445.64990234375	-518.0567626953126	53.97340774536134	1379.539428710938	-559.1962890625001	332.6788635253907	1485.637817382813	-633.3168334960939	342.5411071777344	1474.05078125	-558.4111328125001	414.7707519531251	1526.704711914063	-635.9044799804689	-313.3262023925782	1021.397094726563	-896.2382812500002	-294.7047729492188	1007.849975585938	-677.3799438476564	-474.3454895019532	1101.99951171875	-767.6248779296876	-485.7223205566407	1071.952880859375	-795.6846923828127	-480.4857177734376	1069.432739257813	-736.2127075195314	-355.0956726074219	762.0321655273439	-1002.611877441406	-309.2083435058594	692.3049926757814	-1020.636352539063	-262.1575317382813	698.9632568359376	-1015.988647460938	-327.0914916992188	632.8587036132814	-1011.967468261719	-310.5602111816407	547.2013549804689	-1011.272155761719	-278.1778259277344	496.7769165039064	-909.7117919921877	-397.2539367675782	439.4243774414064	-979.7353515625002	-459.0863037109376	504.0544433593751	-997.5737304687502	-452.5291442871095	461.2991943359376	-990.5203247070315	-517.2860107421876	439.3103332519532	-935.8597412109377	-704.7187500000001	464.4102172851564	-915.0106201171877	-664.7182617187501	444.5847778320314	-840.462341308594	-722.7175292968751	532.9933471679689	-866.010437011719	-731.8821411132814	304.1065063476563	-815.2429199218752	-760.2665405273439	306.3905944824219	-846.9109497070315	-810.2378540039065	350.4614868164063	-872.250915527344	-278.2587585449219	752.4652099609376	-621.3535156250001	-222.6255950927735	715.2996215820314	-626.0349121093751	-193.5952301025391	728.6392211914064	-634.3154296875001	-222.7946777343751	630.7416992187501	-642.3904418945314	-217.8949890136719	503.1917419433595	-679.0030517578126	-195.3283081054688	509.834197998047	-793.3197021484377	-223.7887115478516	298.8939514160157	-728.6004638671876	-322.0222473144532	254.403793334961	-719.1274414062501	-280.6570739746094	235.7505645751954	-725.3609619140626	-279.2104797363282	191.9521179199219	-767.2109985351564	-365.9158325195313	117.0774765014649	-746.4016113281251	-340.3693237304688	134.088851928711	-833.2711181640627	-440.767303466797	98.2526779174805	-797.0631103515627	-215.7947845458985	50.72679138183595	-808.982360839844	-219.0630493164063	55.30899047851564	-762.5881347656251	-274.2382812500001	38.79397201538087	-710.6626586914064	nan	nan	nan	nan	nan	nan	
